PathFileType	4	(X/Y/Z)	/Users/visionmauri/4_2_2_f_1_Sports2D/4_2_2_f_1_Sports2D_m_person00.trc
DataRate	CameraRate	NumFrames	NumMarkers	Units	OrigDataRate	OrigDataStartFrame	OrigNumFrames
30.0	30.0	10	22	m	30.0	284	325
Frame#	Time	Hip			RHip			RKnee			RAnkle			RBigToe			RSmallToe			RHeel			LHip			LKnee			LAnkle			LBigToe			LSmallToe			LHeel			Neck			Head			Nose			RShoulder			RElbow			RWrist			LShoulder			LElbow			LWrist			
		X1	Y1	Z1	X2	Y2	Z2	X3	Y3	Z3	X4	Y4	Z4	X5	Y5	Z5	X6	Y6	Z6	X7	Y7	Z7	X8	Y8	Z8	X9	Y9	Z9	X10	Y10	Z10	X11	Y11	Z11	X12	Y12	Z12	X13	Y13	Z13	X14	Y14	Z14	X15	Y15	Z15	X16	Y16	Z16	X17	Y17	Z17	X18	Y18	Z18	X19	Y19	Z19	X20	Y20	Z20	X21	Y21	Z21	X22	Y22	Z22
284	9.495884773662551	1.3048207917756416	0.8329750233941964	0.0301	1.159389723560822	0.8339913395919413	0.0301	0.9859849992068469	0.3379373880416743	0.129	0.8282540308570797	-0.14673454401824948	0.023	0.7705500649694914	-0.35176269184528086	0.2179	0.6981406383365176	-0.3048784759530088	0.1804	0.8411301860267695	-0.23847420891163515	-0.0119	1.4316437259334025	0.7625327096616554	0.0301	1.314395921329089	0.24566932211155137	0.129	1.1857834011859831	-0.11230956578099739	0.023	1.1369055397136332	-0.33418639990003246	0.2179	1.2199801400002017	-0.32032393458443553	0.1804	1.1343300349498155	-0.14950847664061526	-0.0119	1.457279651617743	1.626270026104809	0.0008	1.4649997631702238	1.947380428117852	0.0655	1.3597536849510625	1.739595671819718	0.1076	1.2080347741589093	1.5605599521738536	-0.01275	1.0074712273629545	1.2620317319173164	0.0702	0.8100880943550736	1.0403213477315136	0.1076	1.6942774753790273	1.4970136614490595	-0.01275	1.7450109429759029	1.0978924735902138	0.0702	1.730135728354679	0.7762064075910504	0.1076
285	9.529320987654321	1.300584001916978	0.8324383970742089	0.0301	1.1575356053472747	0.833644538519004	0.0301	0.9833006416468425	0.3389252379008496	0.129	0.8287678345875239	-0.1455724831688952	0.023	0.7719967956769813	-0.3478789066988497	0.2179	0.6993324069041565	-0.3005949744811891	0.1804	0.8424567377920852	-0.23760413527380717	-0.0119	1.4297540699959894	0.7624171687748794	0.0301	1.3206846610803007	0.2437962941643894	0.129	1.1886463684687019	-0.10728169433340672	0.023	1.1368157139418948	-0.33387890127919023	0.2179	1.21933249508506	-0.3198333095823857	0.1804	1.1366078900885248	-0.13979694412895863	-0.0119	1.454042102279583	1.6288551677462377	0.0008	1.4604294851099593	1.9484102446828913	0.0655	1.3512799145597418	1.7414334406520782	0.1076	1.2017054243681833	1.5606421707215263	-0.01275	1.0017215218603845	1.258988774201535	0.0702	0.8064260347992672	1.0398747351131086	0.1076	1.6907042418169556	1.4971195946623101	-0.01275	1.741397535189895	1.0991538130563816	0.0702	1.7286613745480401	0.7721724302762106	0.1076
286	9.562757201646091	1.295673483906379	0.8305601731981258	0.0301	1.156109312355001	0.8309676338107315	0.0301	0.981524133994238	0.3397323625421049	0.129	0.8290267348692578	-0.14539030429746744	0.023	0.7724122706229327	-0.34410090358153983	0.2179	0.6985958602981124	-0.29798709381637173	0.1804	0.843105789937032	-0.23637662994222847	-0.0119	1.4274258634808465	0.7589717735691806	0.0301	1.3246573925000111	0.2422726851997756	0.129	1.1903067755176755	-0.1025923819928558	0.023	1.140260619869747	-0.3354776032654725	0.2179	1.220712173311755	-0.32048053899761025	0.1804	1.1377540407377236	-0.13319578652276837	-0.0119	1.4500358091996612	1.628285584741761	0.0008	1.4584980148312678	1.9488297014290965	0.0655	1.3461214478635424	1.7428054494597889	0.1076	1.1971421673201925	1.5588454560840952	-0.01275	0.9968189008039313	1.2553126580761635	0.0702	0.8042799386334248	1.0383392461685408	0.1076	1.6873328533115741	1.498381876829086	-0.01275	1.7400690690558984	1.0995566516346058	0.0702	1.7286511052531937	0.7692822721845296	0.1076
287	9.59619341563786	1.294154544803355	0.8306503625437198	0.0301	1.1556626720414351	0.8295310778204307	0.0301	0.9808878717650565	0.3397034866917774	0.129	0.828394557261317	-0.14785208439209316	0.023	0.7706900598892406	-0.34410492127766956	0.2179	0.6969019812927449	-0.3003463391250204	0.1804	0.8429631534996556	-0.23653107653635935	-0.0119	1.4270772737546258	0.7573943509181954	0.0301	1.3252978777095594	0.24130965813851815	0.129	1.1916077727678078	-0.10133250023595151	0.023	1.1456944631656745	-0.3393680088586567	0.2179	1.2257015561353488	-0.3253011482840698	0.1804	1.1383673027050296	-0.1317315370322536	-0.0119	1.445239461002842	1.6252881861983302	0.0008	1.4585619750467946	1.9506724550782708	0.0655	1.3462400129432652	1.744712785093	0.1076	1.1947530413744292	1.556553024973724	-0.01275	0.9934083063971724	1.2537567848664115	0.0702	0.8031679068734909	1.0374906297662907	0.1076	1.6851266950734212	1.4995216962826339	-0.01275	1.74027602174191	1.099637305427935	0.0702	1.7289773352343276	0.7683610631716733	0.1076
288	9.62962962962963	1.2965561964902932	0.8334433984835242	0.0301	1.1561734468099631	0.8306797467724301	0.0301	0.9803613079597479	0.3391563313229817	0.129	0.8272790455008984	-0.15169297925452216	0.023	0.7686744552265705	-0.34702869310688	0.2179	0.6955119941459077	-0.30514845566599147	0.1804	0.8419062301884682	-0.23894587798089575	-0.0119	1.4291078069825458	0.7613590200399787	0.0301	1.3220334572612187	0.23981827802627234	0.129	1.191415424777031	-0.10884565033527648	0.023	1.14906284458951	-0.3461981183805643	0.2179	1.2314350210848433	-0.3345334075606684	0.1804	1.1384594666922538	-0.14064363363275578	-0.0119	1.4435599011628715	1.6238395113514956	0.0008	1.460931487267852	1.952998506864894	0.0655	1.3512165133492309	1.7450027912552428	0.1076	1.1943230228709711	1.55658765248416	-0.01275	0.9913840829937766	1.254418923046206	0.0702	0.8019400694071351	1.0369594157578252	0.1076	1.684456043241325	1.499907000813933	-0.01275	1.741109493886106	1.1000366939755075	0.0702	1.7289763860088478	0.7686032162385014	0.1076
289	9.6630658436214	1.2997337090203398	0.8356468697780329	0.0301	1.1572314842607612	0.832843588490632	0.0301	0.9794653735585257	0.3383585236837835	0.129	0.8267943100907129	-0.15474551723189436	0.023	0.7683986558465861	-0.34919703633568444	0.2179	0.6947154623568111	-0.3083785978493041	0.1804	0.8403720393266958	-0.24377831254889612	-0.0119	1.4317442773719395	0.7669804581763835	0.0301	1.315609925116497	0.2367526669253919	0.129	1.189749117759211	-0.12718669751062134	0.023	1.1472423530482674	-0.35696655797496174	0.2179	1.2325038523980945	-0.3471922516567202	0.1804	1.1372622540259858	-0.16364041649243247	-0.0119	1.4461336204522357	1.6263060495994375	0.0008	1.465350960823288	1.9541825977972078	0.0655	1.3582687170519319	1.7429575856918729	0.1076	1.1953722765786599	1.5598495193754196	-0.01275	0.9898050726808483	1.2547255295828068	0.0702	0.7998910094215211	1.0330813716083886	0.1076	1.6851797619613735	1.501298268349669	-0.01275	1.7417770366057643	1.1011005819884172	0.0702	1.7291176498828467	0.7690629992903437	0.1076
290	9.696502057613168	1.3013210034896143	0.8353582671313452	0.0301	1.1578591517292363	0.8347269752733417	0.0301	0.9789773623443878	0.3373602192588034	0.129	0.8268141157201125	-0.15652989959622807	0.023	0.7698975503735616	-0.349676024447557	0.2179	0.6947068936216657	-0.30998761571149874	0.1804	0.8390632556665016	-0.2504097694994524	-0.0119	1.4335199337086875	0.7692050387564862	0.0301	1.3095181928818254	0.23442334509510157	0.129	1.1873437558318476	-0.15211601127652738	0.023	1.1408022959427795	-0.3715775423469986	0.2179	1.2275898568949444	-0.3641164295170682	0.1804	1.133995941588305	-0.19707632032342626	-0.0119	1.4504439507610485	1.6306954487194922	0.0008	1.46955841420751	1.9556500436761999	0.0655	1.3628151433749163	1.7430336748074655	0.1076	1.1967022726719005	1.5638418910200171	-0.01275	0.9880778328065363	1.2538003282977181	0.0702	0.7982470729558422	1.0267840395219334	0.1076	1.6873495653094288	1.5038583673728003	-0.01275	1.7419049190142903	1.1019025185064106	0.0702	1.7297042157428004	0.7701176100437387	0.1076
291	9.729938271604938	1.3015405404175626	0.8339793124920969	0.0301	1.1576266843823646	0.8357529624890071	0.0301	0.9799099903145169	0.3363848482469874	0.129	0.8265524048435948	-0.1565357237503063	0.023	0.7717429339432982	-0.349216613930574	0.2179	0.6956003169205879	-0.310660926056439	0.1804	0.8389403915192893	-0.25592303747746153	-0.0119	1.434347418195534	0.7682236346188435	0.0301	1.3066594103822766	0.2356756396635438	0.129	1.1840297966624245	-0.17760703102318084	0.023	1.132974147937076	-0.3876259163115581	0.2179	1.219923241230912	-0.38454820632161246	0.1804	1.1290220038523966	-0.23243975720183396	-0.0119	1.454304537867861	1.6336523811376813	0.0008	1.4731202227899003	1.959775098185909	0.0655	1.3638686525529242	1.749858863823602	0.1076	1.1973544089487043	1.5655215679598908	-0.01275	0.9873607571447673	1.2530285446628187	0.0702	0.7982722213651842	1.023273596453407	0.1076	1.690394674952883	1.5049933635615185	-0.01275	1.7421284469105738	1.1007529619052714	0.0702	1.7304163420330243	0.7720107035816317	0.1076
292	9.763374485596708	1.301777347090965	0.8332984396527301	0.0301	1.1582216475251943	0.834608593574965	0.0301	0.9813913385927518	0.3358848859513173	0.129	0.8264463143557709	-0.1552443515265689	0.023	0.7728845967235759	-0.3479848079224401	0.2179	0.6963078120566905	-0.309843285049239	0.1804	0.8407055163513915	-0.2573434676039799	-0.0119	1.4346485236218738	0.7672613810527709	0.0301	1.3047280735472921	0.2388011897910426	0.129	1.1801608349468857	-0.19990387539574786	0.023	1.1254877657395983	-0.40053625270919774	0.2179	1.2128364657336448	-0.40248543744555443	0.1804	1.1244060011553518	-0.26284406732778315	-0.0119	1.4578051391843032	1.6342288035698274	0.0008	1.478968220924979	1.9650984495417618	0.0655	1.3668605996100012	1.7605025964989591	0.1076	1.199307529110644	1.5651451688745677	-0.01275	0.9895168538143884	1.2532936244872428	0.0702	0.7995714235734572	1.0244732079260435	0.1076	1.6934734290569637	1.5040630296487727	-0.01275	1.7442790298342468	1.097578738257694	0.0702	1.7305974642368915	0.7730784326430317	0.1076
293	9.796810699588477	1.3030823587161542	0.8339516122478905	0.0301	1.1607494698346055	0.8312150478017749	0.0301	0.9816886348813223	0.336011497610544	0.129	0.8269610665187398	-0.15503412839587172	0.023	0.7734541074591271	-0.34685805934229513	0.2179	0.6958328521808247	-0.3084405446975271	0.1804	0.8427624157136798	-0.2557285313717596	-0.0119	1.4346714852573825	0.7676149814295774	0.0301	1.3004921240173615	0.2407390855338546	0.129	1.1766398988065863	-0.21627282359569236	0.023	1.1186192939447388	-0.40699355121848485	0.2179	1.2080346166420266	-0.41217540173102146	0.1804	1.122256803143737	-0.2847267094633247	-0.0119	1.463214466798597	1.6335560284511141	0.0008	1.488642755487859	1.9682603000438403	0.0655	1.3752418942601328	1.7681989591803717	0.1076	1.2054996201757273	1.5650165067369781	-0.01275	0.9941269668414995	1.2537333254737526	0.0702	0.8005076491765225	1.0264634196370945	0.1076	1.6980559018946417	1.5029478026013274	-0.01275	1.749823330143006	1.0939594782158126	0.0702	1.7302163086677853	0.772711467011633	0.1076
